<?xml version="1.0" encoding="UTF-8"?>
<svg id="_レイヤー_1" xmlns="http://www.w3.org/2000/svg" version="1.1" viewBox="0 0 640 640">
  <!-- Generator: Adobe Illustrator 29.8.2, SVG Export Plug-In . SVG Version: 2.1.1 Build 3)  -->
  <defs>
    <style>
      .st0 {
        fill: #ff006c;
      }

      .st1 {
        isolation: isolate;
      }
    </style>
  </defs>
  <g class="st1">
    <g class="st1">
      <path class="st0" d="M40.1,227.2v-28.1H12V28.4h28.1V.6h59.4v30.9h-56.2v164.4h56.2v31.3h-59.4Z"/>
      <path class="st0" d="M155.7,212.1v-27.7h-28.1v-86.9h28.1v-28.1h84.5V13.3h31.3v170.9h-28.4v27.7h-87.1l-.2.2ZM158.8,181.2h81v-81h-81v81h0Z"/>
      <path class="st0" d="M257,419.4l98.3-198.8h27.6l-98.3,198.8h-27.6Z"/>
      <path class="st0" d="M368.8,624.3v-170.7h28.1v-28.1h87.1v28.1h28.4v30.9h-31.6v-27.7h-81v52.9h56.2v30.6h-56.2v84.1h-31.3.2Z"/>
      <path class="st0" d="M540.5,639.4v-31.3h56.2v-164.4h-56.2v-30.9h59.4v27.7h28.1v170.7h-28.1v28.1h-59.4Z"/>
    </g>
  </g>
</svg>